<?xml version="1.0" encoding="utf-8"?>
<!-- Generator: Adobe Illustrator 25.2.0, SVG Export Plug-In . SVG Version: 6.00 Build 0)  -->
<svg version="1.1" id="Layer_1" xmlns="http://www.w3.org/2000/svg" xmlns:xlink="http://www.w3.org/1999/xlink" x="0px" y="0px"
	 viewBox="0 0 1080 1080" style="enable-background:new 0 0 1080 1080;" xml:space="preserve">
<g>
	<path d="M2.96,1064.94c15.75-44.24,29.51-83.49,43.69-122.59c51.46-141.91,103.84-283.5,153.91-425.89
		c9.2-26.17,20.77-35.3,48.85-35.08c177.65,1.38,355.33,1.69,532.98,0.47c136.69-0.93,223.04-142.25,159.03-259.97
		c-34.65-63.72-90.82-93.23-163.59-93c-174.35,0.56-348.7,0.28-523.05,0.34c-16.34,0.01-32.68,0-58.09,0
		c30.61,41.93,55.84,78.71,83.94,113.14c5.67,6.95,22.2,6.91,33.72,6.93c148.97,0.27,297.94-0.06,446.91-0.12
		c12.12,0,24.49-0.53,36.3,1.62c27.38,4.98,47.11,29.93,46.34,56.51c-0.78,26.8-21.65,50.33-49.05,54.33
		c-8.67,1.27-17.62,0.75-26.44,0.76c-171.04,0.18-342.08,0.06-513.11,0.79c-20.46,0.09-34.8-4.95-47.31-22.55
		c-53.03-74.65-107.18-148.51-161.6-222.16c-16.92-22.9-26.05-46.4-13.21-73.68c12.98-27.58,38.78-30.14,64.8-30.16
		c230.63-0.18,461.27-1.85,691.88,0.43c156.12,1.55,285.82,133.51,286.67,285.43c0.91,162.35-120.52,291.41-284.96,295.7
		c-153.27,4-306.72,2.15-460.08,1.31c-25.31-0.14-38.78,4.5-48.13,30.99c-48.05,136.12-99.15,271.17-147.79,407.08
		c-8.02,22.42-18.75,31.63-42.71,29.85C65.54,1063.38,37.97,1064.94,2.96,1064.94z"fill="#FFFFFF"/>
	<path d="M418.76,952.22c68.67,0,133.6-0.01,198.54,0c55.16,0.01,110.35,1.16,165.47-0.21c74.77-1.86,131.89-35.4,163.7-103.83
		c31.27-67.27,19.79-131.05-25.48-189.14c-4.68-6-9.59-11.81-15.68-19.29c33.23-18.84,65.11-36.9,99.9-56.62
		c42.48,45.53,65.34,100.09,70.59,161.98c17.52,206.52-153.32,325.67-302,320.9c-160.9-5.16-322.09-1.07-483.16-1.01
		c-10.64,0-21.28,0-37.82,0c12.51-35.22,23-64.99,33.65-94.72c27.49-76.74,55.31-153.37,82.37-230.27
		c5.68-16.13,12.6-25.37,32.32-25.22c123.54,0.94,247.11-0.35,370.64,1.54c19.23,0.3,44.04,8.14,55.74,21.64
		c11.05,12.74,14.08,38.8,10.16,56.71c-6.25,28.57-32.92,36.65-59.86,36.9c-73.9,0.66-147.81,0.43-221.72,0.55
		c-102.26,0.18-102.29,0.17-133.13,98.45C421.39,935.66,420.89,941.09,418.76,952.22z" fill="#FFFFFF"/>
</g>
</svg>
